<?xml version="1.0" encoding="us-ascii" standalone="no"?><svg xmlns="http://www.w3.org/2000/svg" xmlns:xlink="http://www.w3.org/1999/xlink" contentStyleType="text/css" height="358px" preserveAspectRatio="none" style="width:1282px;height:358px;background:#FFFFFF;" version="1.1" viewBox="0 0 1282 358" width="1282px" zoomAndPan="magnify"><defs/><g><text fill="#000000" font-family="sans-serif" font-size="14" font-weight="bold" lengthAdjust="spacing" textLength="260" x="504" y="22.9951">State Machine for Run Out Utils</text><!--cluster StateMachine--><g id="cluster_StateMachine"><rect fill="none" height="168" rx="2.5" ry="2.5" style="stroke:#181818;stroke-width:1.0;" width="971" x="305" y="119.2999"/><text fill="#000000" font-family="sans-serif" font-size="14" font-weight="bold" lengthAdjust="spacing" textLength="112" x="734.5" y="134.295">StateMachine</text></g><g id="elem_GO"><ellipse cx="394.3761" cy="179.4643" fill="#F1F1F1" rx="47.3761" ry="14.6644" style="stroke:#181818;stroke-width:0.5;"/><text fill="#000000" font-family="sans-serif" font-size="14" lengthAdjust="spacing" textLength="50" x="366.3761" y="183.2118">GO&#29366;&#24577;</text></g><g id="elem_STOP"><ellipse cx="810.3197" cy="256.067" fill="#F1F1F1" rx="59.3197" ry="14.7671" style="stroke:#181818;stroke-width:0.5;"/><text fill="#000000" font-family="sans-serif" font-size="14" lengthAdjust="spacing" textLength="66" x="774.3197" y="259.8146">STOP&#29366;&#24577;</text></g><g id="elem_APPROACH"><ellipse cx="1184.3844" cy="194.2768" fill="#F1F1F1" rx="75.3844" ry="17.4769" style="stroke:#181818;stroke-width:0.5;"/><text fill="#000000" font-family="sans-serif" font-size="14" lengthAdjust="spacing" textLength="107" x="1127.8844" y="198.0243">APPROACH&#29366;&#24577;</text></g><g id="elem_UNKNOWN"><ellipse cx="394.4504" cy="246.3899" fill="#F1F1F1" rx="73.4504" ry="17.0901" style="stroke:#181818;stroke-width:0.5;"/><text fill="#000000" font-family="sans-serif" font-size="14" lengthAdjust="spacing" textLength="102" x="340.4504" y="250.1375">UNKNOWN&#29366;&#24577;</text></g><!--entity Ego--><g id="elem_Ego"><ellipse cx="34" cy="64.7999" fill="#F1F1F1" rx="8" ry="8" style="stroke:#181818;stroke-width:0.5;"/><path d="M34,72.7999 L34,99.7999 M21,80.7999 L47,80.7999 M34,99.7999 L21,114.7999 M34,99.7999 L47,114.7999 " fill="none" style="stroke:#181818;stroke-width:0.5;"/><text fill="#000000" font-family="sans-serif" font-size="14" lengthAdjust="spacing" textLength="56" x="6" y="129.295">&#33258;&#24049;&#36710;&#36742;</text></g><!--entity Obstacle--><g id="elem_Obstacle"><ellipse cx="34" cy="285.7999" fill="#F1F1F1" rx="8" ry="8" style="stroke:#181818;stroke-width:0.5;"/><path d="M34,293.7999 L34,320.7999 M21,301.7999 L47,301.7999 M34,320.7999 L21,335.7999 M34,320.7999 L47,335.7999 " fill="none" style="stroke:#181818;stroke-width:0.5;"/><text fill="#000000" font-family="sans-serif" font-size="14" lengthAdjust="spacing" textLength="42" x="13" y="350.295">&#38556;&#30861;&#29289;</text></g><!--link Ego to GO--><g id="link_Ego_GO"><path d="M62.2325,119.2619 C71.1371,126.1599 81.4624,132.9389 92,137.2999 C177.092,172.5119 280.0324,179.1778 340.9314,179.8888 " fill="none" id="Ego-to-GO" style="stroke:#181818;stroke-width:1.0;"/><polygon fill="#181818" points="346.931,179.9589,337.9783,175.8541,341.9313,179.9005,337.8849,183.8535,346.931,179.9589" style="stroke:#181818;stroke-width:1.0;"/><text fill="#000000" font-family="sans-serif" font-size="13" lengthAdjust="spacing" textLength="182" x="99.5" y="133.3668">&#24403;&#21069;&#36895;&#24230;&#22823;&#20110;&#38408;&#20540;&#25110;&#27809;&#26377;&#38556;&#30861;&#29289;</text></g><!--link Ego to STOP--><g id="link_Ego_STOP"><path d="M62.0662,92.2949 C153.198,86.5509 455.818,75.7139 682,164.2999 C727.75,182.2179 767.8348,216.3034 790.1938,237.4084 " fill="none" id="Ego-to-STOP" style="stroke:#181818;stroke-width:1.0;"/><polygon fill="#181818" points="794.557,241.5269,790.7578,232.4403,790.921,238.0948,785.2665,238.2579,794.557,241.5269" style="stroke:#181818;stroke-width:1.0;"/><text fill="#000000" font-family="sans-serif" font-size="13" lengthAdjust="spacing" textLength="104" x="342.5" y="88.3668">&#24403;&#21069;&#36895;&#24230;&#23567;&#20110;&#38408;&#20540;</text></g><!--link Ego to APPROACH--><g id="link_Ego_APPROACH"><path d="M62.0397,76.6519 C71.1781,71.6369 81.6865,66.8479 92,64.2999 C176.999,43.2969 201.448,63.5659 289,64.2999 C368.564,64.9669 388.712,60.6429 468,67.2999 C665.554,83.8869 713.556,101.0689 909,134.2999 C984.795,147.1869 1004.037,149.2279 1079,166.2999 C1097.77,170.5749 1112.4719,174.3346 1130.3019,179.2026 " fill="none" id="Ego-to-APPROACH" style="stroke:#181818;stroke-width:1.0;"/><polygon fill="#181818" points="1136.09,180.7829,1128.4613,174.5537,1131.2665,179.466,1126.3542,182.2712,1136.09,180.7829" style="stroke:#181818;stroke-width:1.0;"/><text fill="#000000" font-family="sans-serif" font-size="13" lengthAdjust="spacing" textLength="138" x="521" y="66.3668">STOP&#29366;&#24577;&#25345;&#32493;&#19968;&#23450;&#26102;&#38388;</text></g><!--link Obstacle to GO--><g id="link_Obstacle_GO"><path d="M55.1646,305.6934 C66.0037,300.6336 79.6448,294.431 92,289.2999 C188.74,249.1239 300.3077,210.5476 355.7737,191.8706 " fill="none" id="Obstacle-to-GO" style="stroke:#181818;stroke-width:1.0;"/><polygon fill="#181818" points="361.46,189.9559,351.6541,189.0371,356.7214,191.5515,354.2071,196.6188,361.46,189.9559" style="stroke:#181818;stroke-width:1.0;"/><text fill="#000000" font-family="sans-serif" font-size="13" lengthAdjust="spacing" textLength="195" x="93" y="211.3668">&#36317;&#31163;&#33258;&#24049;&#36710;&#36742;&#36275;&#22815;&#36828;&#25110;&#27809;&#26377;&#38556;&#30861;&#29289;</text></g><!--link Obstacle to STOP--><g id="link_Obstacle_STOP"><path d="M55.3149,314.9584 C117.273,313.8189 309.284,309.5625 468,298.2999 C563.373,291.5322 587.182,288.6016 682,276.2999 C707.997,272.927 730.941,269.424 754.624,265.5671 " fill="none" id="Obstacle-to-STOP" style="stroke:#181818;stroke-width:1.0;"/><polygon fill="#181818" points="760.546,264.6027,751.0201,262.1013,755.611,265.4064,752.306,269.9973,760.546,264.6027" style="stroke:#181818;stroke-width:1.0;"/><text fill="#000000" font-family="sans-serif" font-size="13" lengthAdjust="spacing" textLength="117" x="336" y="294.3668">&#36317;&#31163;&#33258;&#24049;&#36710;&#36742;&#36275;&#22815;&#36817;</text></g><!--link Obstacle to APPROACH--><g id="link_Obstacle_APPROACH"><path d="M55.0076,317.9246 C65.92,319.2253 79.6783,320.6532 92,321.2999 C179.435,325.8891 201.445,321.4113 289,321.2999 C564.922,320.9489 638.728,344.8548 909,289.2999 C985.785,273.5166 1005.367,269.1914 1079,242.2999 C1104.13,233.1229 1126.1936,223.0441 1146.6536,213.0041 " fill="none" id="Obstacle-to-APPROACH" style="stroke:#181818;stroke-width:1.0;"/><polygon fill="#181818" points="1152.04,210.3609,1142.1982,210.7347,1147.5513,212.5635,1145.7225,217.9166,1152.04,210.3609" style="stroke:#181818;stroke-width:1.0;"/><text fill="#000000" font-family="sans-serif" font-size="13" lengthAdjust="spacing" textLength="117" x="531.5" y="318.3668">&#36317;&#31163;&#33258;&#24049;&#36710;&#36742;&#36275;&#22815;&#36817;</text></g><!--link GO to STOP--><g id="link_GO_STOP"><path d="M425.501,190.5219 C438.993,196.1709 454.813,203.6599 468,212.2999 C483.005,222.1299 481.434,232.4189 498,239.2999 C583.905,274.9805 688.7855,271.0792 752.4395,264.224 " fill="none" id="GO-to-STOP" style="stroke:#181818;stroke-width:1.0;stroke-dasharray:7.0,7.0;"/><polygon fill="#181818" points="758.405,263.5816,749.0284,260.5683,753.4337,264.117,749.885,268.5223,758.405,263.5816" style="stroke:#181818;stroke-width:1.0;"/><text fill="#000000" font-family="sans-serif" font-size="13" lengthAdjust="spacing" textLength="104" x="538" y="235.3668">&#24403;&#21069;&#36895;&#24230;&#23567;&#20110;&#38408;&#20540;</text></g><!--link STOP to GO--><g id="link_STOP_GO"><path d="M774.431,244.2529 C749.029,235.9209 713.722,225.1439 682,218.2999 C597.601,200.0919 503.2542,189.3232 446.5072,183.8372 " fill="none" id="STOP-to-GO" style="stroke:#181818;stroke-width:1.0;stroke-dasharray:7.0,7.0;"/><polygon fill="#181818" points="440.535,183.2599,449.1083,188.1073,445.5118,183.741,449.8781,180.1445,440.535,183.2599" style="stroke:#181818;stroke-width:1.0;"/><text fill="#000000" font-family="sans-serif" font-size="13" lengthAdjust="spacing" textLength="182" x="499" y="185.3668">&#24403;&#21069;&#36895;&#24230;&#22823;&#20110;&#38408;&#20540;&#25110;&#27809;&#26377;&#38556;&#30861;&#29289;</text></g><!--link STOP to APPROACH--><g id="link_STOP_APPROACH"><path d="M860.515,248.1309 C927.989,236.8849 1043.5116,217.6313 1116.7216,205.4293 " fill="none" id="STOP-to-APPROACH" style="stroke:#181818;stroke-width:1.0;stroke-dasharray:7.0,7.0;"/><polygon fill="#181818" points="1122.64,204.4429,1113.1048,201.9769,1117.708,205.2649,1114.4201,209.8681,1122.64,204.4429" style="stroke:#181818;stroke-width:1.0;"/><text fill="#000000" font-family="sans-serif" font-size="13" lengthAdjust="spacing" textLength="138" x="940" y="208.3668">STOP&#29366;&#24577;&#25345;&#32493;&#19968;&#23450;&#26102;&#38388;</text></g><!--link APPROACH to GO--><g id="link_APPROACH_GO"><path d="M1117.25,186.2859 C994.824,172.6119 724.927,147.7839 498,164.2999 C477.372,165.8009 460.516,168.0227 441.681,171.0697 " fill="none" id="APPROACH-to-GO" style="stroke:#181818;stroke-width:1.0;stroke-dasharray:7.0,7.0;"/><polygon fill="#181818" points="435.758,172.0279,445.2813,174.5393,440.6938,171.2294,444.0037,166.6419,435.758,172.0279" style="stroke:#181818;stroke-width:1.0;"/><text fill="#000000" font-family="sans-serif" font-size="13" lengthAdjust="spacing" textLength="195" x="713" y="155.3668">&#36317;&#31163;&#33258;&#24049;&#36710;&#36742;&#36275;&#22815;&#36828;&#25110;&#27809;&#26377;&#38556;&#30861;&#29289;</text></g><!--SRC=[bP3TIW9H58NlprDilDS7y2AG28F84KswFar77RGPcJbUH0JZJMba4K6665A8KL3qXuPclOndVjwYcMayQVRdtJwijVRvzg8IpHD8Kam9B6CnAya4qeeAYQ8CGf52Yafv3UL9cW9LG9KoMGhhaaf4AYaoqdAINC0gte025dCuGv9qqrddoWXXaJgB5Z8AO0q2rkurwzvRWxRrkXFmDM5DerXq0gx1hZVCYwfPkGeWv6_xu1fXRI60eaP4h1682bucAfXx7KCl1SQav8eGzqHtc9OZyNX2YCmlUfRHOzgMYYt5XDMOv_BdaMaR8VUeO73EnGW36nopIjNMcwpNPgtBOU_0FYqp_SKednWFvqQZmY_ZEO_nI_Bka2UvZyE6uVCQOxzazc-6ppgxhHkrZbrxGeWtoQcixfdPxe-tRdKUMQjflJM-0Pl8-tG_RpYQz8zH_fP13bSezFVndkuQPssN1_zR6_VntsPgxHq0]--></g></svg>